# xmcd
#
# Track frame offsets:
#	150
#	25756
#	42599
#	68696
#	83016
#	128291
#	146372
#	163429
#	180152
#	200436
#	224441
#
# Disc length: 3325 seconds
#
# Revision: 1
# Processed by: cddbd v1.5.1PL0 Copyright (c) Steve Scherf et al.
# Submitted via: audiograbber 1.83.01
#
DISCID=900cfb0b
DTITLE=The Westside Andy -- Mel Ford Band - Handyman
DYEAR=2003
DGENRE=Blues
TTITLE0=Handyman
TTITLE1=Pork And Beans
TTITLE2=Waitin' For You
TTITLE3=Mr. Clean
TTITLE4=Lip Service
TTITLE5=Won't Pass Me By
TTITLE6=You Put It Out
TTITLE7=Tongue and Groove
TTITLE8=Frogs For Snakes
TTITLE9=Yonder Wall
TTITLE10=Beer
EXTD=
EXTT0=
EXTT1=
EXTT2=
EXTT3=
EXTT4=
EXTT5=
EXTT6=
EXTT7=
EXTT8=
EXTT9=
EXTT10=
PLAYORDER=
